<?xml version="1.0" standalone="no"?><!DOCTYPE svg PUBLIC "-//W3C//DTD SVG 1.1//EN" "http://www.w3.org/Graphics/SVG/1.1/DTD/svg11.dtd"><svg width="200" height="200" viewBox="0 0 200 200" version="1.1" xmlns="http://www.w3.org/2000/svg" xmlns:xlink="http://www.w3.org/1999/xlink"><defs><style type="text/css"><![CDATA[
@font-face { font-family: ifont; src: url("http://at.alicdn.com/t/font_1442373896_4754455.eot?#iefix") format("embedded-opentype"), url("http://at.alicdn.com/t/font_1442373896_4754455.woff") format("woff"), url("http://at.alicdn.com/t/font_1442373896_4754455.ttf") format("truetype"), url("http://at.alicdn.com/t/font_1442373896_4754455.svg#ifont") format("svg"); }

]]></style></defs><g class="transform-group"><g transform="scale(0.1953125, 0.1953125)"><path d="M29.486883 831.408592 994.895891 831.408592C1010.961699 831.408592 1024.106451 844.524133 1024.106451 860.706783 1024.106451 876.889434 1010.961699 890.004975 994.895891 890.004975L29.486883 890.004975C13.12897 890.004975-0.015782 876.889434-0.015782 860.706783-0.015782 844.524133 13.12897 831.408592 29.486883 831.408592ZM29.486883 480.881872 994.895891 480.881872C1010.961699 480.881872 1024.106451 493.997413 1024.106451 510.180063 1024.106451 526.362714 1010.961699 539.478255 994.895891 539.478255L29.486883 539.478255C13.12897 539.478255-0.015782 526.362714-0.015782 510.180063-0.015782 493.997413 13.12897 480.881872 29.486883 480.881872ZM29.486883 130.355152 994.895891 130.355152C1010.961699 130.355152 1024.106451 143.470693 1024.106451 159.653343 1024.106451 175.835994 1010.961699 188.951535 994.895891 188.951535L29.486883 188.951535C13.12897 188.951535-0.015782 175.835994-0.015782 159.653343-0.015782 143.470693 13.12897 130.355152 29.486883 130.355152Z" fill="#bd3e37"></path></g></g></svg>