<?xml version="1.0" standalone="no"?><!DOCTYPE svg PUBLIC "-//W3C//DTD SVG 1.1//EN" "http://www.w3.org/Graphics/SVG/1.1/DTD/svg11.dtd"><svg width="128" height="128" viewBox="0 0 128 128" version="1.1" xmlns="http://www.w3.org/2000/svg" xmlns:xlink="http://www.w3.org/1999/xlink"><defs><style type="text/css"><![CDATA[
@font-face { font-family: ifont; src: url("http://at.alicdn.com/t/font_1442373896_4754455.eot?#iefix") format("embedded-opentype"), url("http://at.alicdn.com/t/font_1442373896_4754455.woff") format("woff"), url("http://at.alicdn.com/t/font_1442373896_4754455.ttf") format("truetype"), url("http://at.alicdn.com/t/font_1442373896_4754455.svg#ifont") format("svg"); }

]]></style></defs><g class="transform-group"><g transform="scale(0.125, 0.125)"><path d="M256 785.066667C265.4208 785.066667 273.066667 777.4208 273.066667 768L273.066667 85.333333C273.066667 60.450133 299.383467 34.133333 324.266667 34.133333L699.733333 34.133333C724.616533 34.133333 750.933333 60.450133 750.933333 85.333333 750.933333 94.754133 758.5792 102.4 768 102.4 777.4208 102.4 785.066667 94.754133 785.066667 85.333333 785.066667 41.472 743.594667 0 699.733333 0L324.266667 0C280.405333 0 238.933333 41.472 238.933333 85.333333L238.933333 768C238.933333 777.4208 246.5792 785.066667 256 785.066667M768 136.533333 324.266667 136.533333C314.845867 136.533333 307.2 144.1792 307.2 153.6 307.2 163.0208 314.845867 170.666667 324.266667 170.666667L750.933333 170.666667 750.933333 938.666667C750.933333 963.549867 724.616533 989.866667 699.733333 989.866667L324.266667 989.866667C299.383467 989.866667 273.066667 963.549867 273.066667 938.666667L273.066667 853.333333 699.733333 853.333333C709.154133 853.333333 716.8 845.687467 716.8 836.266667 716.8 826.845867 709.154133 819.2 699.733333 819.2L256 819.2C246.5792 819.2 238.933333 826.845867 238.933333 836.266667L238.933333 938.666667C238.933333 982.528 280.405333 1024 324.266667 1024L699.733333 1024C743.594667 1024 785.066667 982.528 785.066667 938.666667L785.066667 153.6C785.066667 144.1792 777.4208 136.533333 768 136.533333M477.866667 921.6C477.866667 940.424533 493.175467 955.733333 512 955.733333 530.824533 955.733333 546.133333 940.424533 546.133333 921.6 546.133333 902.775467 530.824533 887.466667 512 887.466667 493.175467 887.466667 477.866667 902.775467 477.866667 921.6M461.141333 68.266667C451.720533 68.266667 444.16 75.912533 444.16 85.333333 444.16 94.754133 451.874133 102.4 461.312 102.4 470.749867 102.4 478.378667 94.754133 478.378667 85.333333 478.378667 75.912533 470.749867 68.266667 461.312 68.266667L461.141333 68.266667M529.066667 68.266667C519.645867 68.266667 512 75.912533 512 85.333333 512 94.754133 519.645867 102.4 529.066667 102.4L597.333333 102.4C606.754133 102.4 614.4 94.754133 614.4 85.333333 614.4 75.912533 606.754133 68.266667 597.333333 68.266667L529.066667 68.266667M665.6 307.2C669.969067 307.2 674.338133 305.527467 677.666133 302.199467 684.3392 295.5264 684.3392 284.740267 677.666133 278.0672L643.5328 243.933867C636.859733 237.2608 626.0736 237.2608 619.400533 243.933867 612.727467 250.606933 612.727467 261.393067 619.400533 268.066133L653.533867 302.199467C656.861867 305.527467 661.230933 307.2 665.6 307.2M517.000533 243.933867C510.327467 250.606933 510.327467 261.393067 517.000533 268.066133L653.533867 404.599467C656.861867 407.927467 661.230933 409.6 665.6 409.6 669.969067 409.6 674.338133 407.927467 677.666133 404.599467 684.3392 397.9264 684.3392 387.140267 677.666133 380.4672L541.1328 243.933867C534.459733 237.2608 523.6736 237.2608 517.000533 243.933867" fill="#ffffff"></path></g></g></svg>