<?xml version="1.0" standalone="no"?><!DOCTYPE svg PUBLIC "-//W3C//DTD SVG 1.1//EN" "http://www.w3.org/Graphics/SVG/1.1/DTD/svg11.dtd"><svg width="128" height="128" viewBox="0 0 128 128" version="1.1" xmlns="http://www.w3.org/2000/svg" xmlns:xlink="http://www.w3.org/1999/xlink"><defs><style type="text/css"><![CDATA[
@font-face { font-family: ifont; src: url("http://at.alicdn.com/t/font_1442373896_4754455.eot?#iefix") format("embedded-opentype"), url("http://at.alicdn.com/t/font_1442373896_4754455.woff") format("woff"), url("http://at.alicdn.com/t/font_1442373896_4754455.ttf") format("truetype"), url("http://at.alicdn.com/t/font_1442373896_4754455.svg#ifont") format("svg"); }

]]></style></defs><g class="transform-group"><g transform="scale(0.125, 0.125)"><path d="M671.981644 955.780269c-76.459393 0-118.447692-25.983791-135.998417-40.58637l-41.744753 0c-13.625322 11.978822-56.129368 40.58637-151.432944 40.58637-119.623471 0-164.207899-62.914912-164.207899-102.57826 0-32.027437 18.121729-63.231113 43.335994-77.734432l-8.65717-18.46556c-10.151197 7.40976-24.400736 15.126512-39.681768 15.126512-34.805714 0-54.853305-35.628452-59.595306-105.888655-7.580652-112.232131 38.60525-157.722184 66.199725-184.900174 6.006807-5.916756 16.058744-15.814174 15.371082-18.455327-10.458189-40.377616 15.959483-96.896864 22.907733-110.720707 2.587941-66.226331 75.925227-286.961664 288.146653-286.961664 214.393905 0 301.003472 204.992791 301.003472 290.471604l0 12.33084c11.1919 12.204973 37.473473 47.236837 26.942629 97.874121 1.12973 3.103688 7.030114 10.377348 11.824303 16.294105 22.165836 27.359115 63.449078 78.285994 63.449078 183.13497 0 92.725868-32.217772 112.195292-59.250452 112.195292-15.037485 0-29.096688-6.395664-38.904055-12.33084-1.682315 3.076058-3.635807 6.712889-5.826705 10.892071 15.724123 11.608386 40.848337 37.329187 40.848337 83.136465C846.712201 929.561118 739.529063 955.780269 671.981644 955.780269zM488.611314 887.400902c8.432043 0 43.174312 0 51.66059 0s10.394744 3.709485 10.394744 3.709485c11.943007 11.092639 47.669696 36.876885 121.31602 36.876885 59.258639 0 146.936537-21.858844 146.936537-68.786643 0-47.706535-32.904411-61.440327-37.075407-65.557088-4.170996-4.115738-11.734252-8.531304-6.551206-18.809391 5.184069-10.277064 16.366759-31.510668 20.184715-37.219693 3.818979-5.718235 16.09456-7.337105 20.935822-3.112897 4.831029 4.233418 20.401656 15.208377 34.181497 15.208377 27.376511 0 31.457456-52.881394 31.457456-84.401272 0-94.996584-35.836183-139.219785-57.250912-165.637458-11.44568-14.131859-20.491707-25.296129-17.596773-38.71372 10.187013-47.119157-22.346961-76.549443-22.672372-76.839039l-4.694929-28.444842c0-57.929364-65.430198-262.678608-273.210475-262.678608-208.702276 0-260.036431 223.775576-260.036431 256.509095l-4.768607 18.157545c-8.685823 16.267499-26.834158 59.359946-19.343557 88.23867 4.713348 18.166755-8.639774 31.321356-22.771633 45.236274-25.765827 25.38618-64.697511 63.729463-57.984622 163.230642 3.438309 50.819432 15.054881 79.968309 31.873941 79.968309 13.207813 0 27.313066-13.904685 34.288944-19.351744 6.975878-5.447059 13.490246-7.29208 20.49273-1.971911 5.084808 3.872191 27.15957 45.887097 28.553313 55.985082 1.266853 9.110495-3.745301 14.158465-12.620435 16.945951-20.962427 3.500731-37.917588 31.484062-37.917588 57.260122 0 24.400736 33.348526 74.785264 136.414903 74.785264 102.976326 0 134.859477-35.275411 135.167492-35.628452C477.971999 892.358821 480.178247 887.400902 488.611314 887.400902zM511.899716 542.4188c-200.741977 0-305.364803-62.21804-309.715901-64.860217l-4.379751-2.667759-1.600451-4.867868c-0.650823-1.962701-15.361873-48.919153 23.903409-120.989585l8.748245-16.067954 13.127995 12.738116c0.706081 0.670266 77.009931 71.220065 269.917476 71.220065 195.439204 0 272.974092-53.967122 273.734408-54.518684l9.590426-6.867408 8.332782 8.341992c1.89107 1.89107 46.114271 46.946218 30.642904 103.673198l-1.49198 5.446036-4.867868 2.867304C823.225277 478.590076 712.540386 542.4188 511.899716 542.4188zM221.661426 456.568527c22.745027 11.887748 121.921817 58.056254 290.237267 58.056254 169.608909 0 273.282107-47.869241 296.733215-59.96472 4.885264-27.177989-8.992815-50.963719-17.896602-62.924121-28.598338 15.679098-113.977891 52.980655-278.836613 52.980655-159.304216 0-243.490593-45.606711-274.821159-67.592444C218.622206 417.403528 220.051765 445.712271 221.661426 456.568527zM440.506712 700.502212l-97.701183 0c-13.137205 0-35.176151-4.930289-35.176151-37.944194L307.629379 492.179582l23.550369 4.713348c11.137665 6.288217 74.034157 14.086833 126.8255 17.758456l12.928451 0.905626 0.017396 151.452387c0.073678 5.935176 0.217964 17.008372-7.924483 25.25008C457.632765 697.734168 450.052113 700.502212 440.506712 700.502212zM335.296509 521.130961l0.125867 141.427056c0 10.151197 1.121544 10.151197 7.383154 10.151197l97.701183 0c1.158383 0 1.962701-0.091074 2.488681-0.181125 0.207731-1.412163 0.181125-3.76372 0.161682-5.157463l-0.017396-1.809205L443.139679 534.448268C393.542074 530.647709 357.408109 526.911618 335.296509 521.130961zM462.610126 159.365614c0 0 11.652388-4.179183 7.020904-17.876136-4.632507-13.716396-17.877159-7.708566-17.877159-7.708566-3.745301 1.583055-73.211419 22.564925-114.303302 92.083232-1.573845 3.817955-2.162246 11.797697 8.080026 16.556071 10.81123 5.021364 16.402575-3.27458 19.532869-7.907087C402.263713 176.682002 461.59603 159.799496 462.610126 159.365614zM302.32763 312.663022c0 0-1.393743 10.061147 10.187013 12.757558 14.602579 3.40147 17.099447-7.54586 17.099447-7.54586 2.777253-14.511505 7.219425-27.847232 12.748349-40.10644 1.818415-5.03876 1.854231-11.643178-9.960863-15.84078-8.685823-3.094478-13.317307 0.958838-17.117866 8.069793C309.7466 283.096636 305.259402 297.28273 302.32763 312.663022z" fill="#ffffff"></path></g></g></svg>